# xmcd CD database file
#
# Track frame offsets:
#	150
#	11603
#	26974
#	61638
#	72175
#	105098
#	130820
#	150684
#	180332
#	200508
#	214396
#
# Disc length: 3228 seconds
#
# Revision: 0
# Processed by: cddbd v1.5.1PL2 Copyright (c) Steve Scherf et al.
# Submitted via: CDex 1.51
#
DISCID=8d0c9a0b
DTITLE=Kevin Hays - Open Range
DYEAR=2005
DGENRE=Jazz
TTITLE0=Open Range
TTITLE1=Homestead
TTITLE2=Desert Blues
TTITLE3=Humming Bird Song
TTITLE4=Improvisation
TTITLE5=You Are My Sunshine
TTITLE6=Fire Dance
TTITLE7=Nursery Rhyme
TTITLE8=Meditation
TTITLE9=Harmonium
TTITLE10=Sacred Circles
EXTD=YEAR: 2005
EXTT0=
EXTT1=
EXTT2=
EXTT3=
EXTT4=
EXTT5=
EXTT6=
EXTT7=
EXTT8=
EXTT9=
EXTT10=
PLAYORDER=
